<?xml version="1.0" encoding="utf-8"?>
<!-- Generator: Adobe Illustrator 22.0.1, SVG Export Plug-In . SVG Version: 6.00 Build 0)  -->
<svg version="1.1" id="Cleveland_Indians-SLEbeta" xmlns="http://www.w3.org/2000/svg" xmlns:xlink="http://www.w3.org/1999/xlink"
	 x="0px" y="0px" viewBox="0 0 394.2 352.4" style="enable-background:new 0 0 394.2 352.4;" xml:space="preserve">
<style type="text/css">
	.st0{fill:none;stroke:#F4F1E7;stroke-width:9;}
	.st1{fill:#F26F44;}
	.st2{font-family:'NotoSans-Bold';}
	.st3{font-size:65.2134px;}
	.st4{letter-spacing:2;}
</style>
<path class="st0" d="M140.7,129.7c6-9.7,23.3-19.8,30.4-21.1c7.4-1.4,12.4-3.3,20.5-3.3c10.3,0,18.5-0.9,28.5-0.7
	c6,2.2,13,8.8,17.8,9.2c2.6-3.2,2.2-10.5,4-14.6c1.6-3.8,5.3-28.3,8.6-37.3c2-5.4,2.1-12.8,5.2-17.5c2.4-3.6,2.3-4.8,5.8-7.1
	c3.8-2.5,7.9-4.2,12-6.1c5.2-2.4,9.9-5.7,14.8-8.7c5.4,5.5,9.4,11.5,13.8,17.8c2.6,3.7,5.2,6.6,8.4,13.6c0.6,9.5-4.1,22-6.2,31.3
	c-2.5,10.8-2.9,15.5-6.5,25.8c-2.3,6.4-2.6,14.2-5.5,20.5c-2.9,6.3-9,17.7-13.2,23c-1.1,1.4-4.6,7.3-7.5,10.5
	c-2.1,2.3-4.6,4.3-4.5,7.5c0.2,4.8-0.9,19.9-0.5,24.8c3.2-8.2,10-15.2,19-19c6.1-2.5,16,15.2,17,23.6c0.8,7-0.8,11.4-3.4,18
	c-3.4,8.7-9.5,9.2-6.1,17.9c2.4,6.1,4.5,7.4,1.5,15.2c-2.8,7.3-12.8,17.5-20.9,20.5c-6.7,2.5-9.1,1.9-13.6,4.8
	c-2.8,1.8-4.8,5.3-7.2,7.4c-5.8,4.9-8.8,9.4-19.2,17.2c-1.7,1.3-7.5,9.2-25.1,14.3c-9.4,2.7-13.7,2.7-23.2,2.7
	c-8,0-26.9-3.6-34.5-7.2c-13.5-6.5-21-21.5-28-29.8c-3.5-4.1-13.2-15.2-19.2-21.5c-7-7.3-4.2-5-11.8-13c-4.5-4.8-7.2-11.2-7.5-17.5
	c-0.9-18.4,15.6-17.1,25.5-28.5c9.5-11,12.5-22.2,17.4-36.6c2.2-6.5,4.5-13,6.9-19.4C135.8,141.2,137.6,134.8,140.7,129.7z"/>
<text transform="matrix(1 0 0 1 44.4421 230.0624)" class="st1 st2 st3 st4">INDIANS</text>
</svg>
