<?xml version="1.0" encoding="utf-8"?>
<!-- Generator: Adobe Illustrator 22.0.1, SVG Export Plug-In . SVG Version: 6.00 Build 0)  -->
<svg version="1.1" id="Layer_1" xmlns="http://www.w3.org/2000/svg" xmlns:xlink="http://www.w3.org/1999/xlink" x="0px" y="0px"
	 viewBox="0 0 821.9 282" style="enable-background:new 0 0 821.9 282;" xml:space="preserve">
<style type="text/css">
	.st0{opacity:0.75;}
	.st1{fill:#3C3C3A;stroke:#F4F1E7;stroke-miterlimit:10;}
	.st2{fill:#F26F44;}
	.st3{fill:#F4F1E7;}
</style>
<g>
	<g>
		<path class="st2" d="M516.2,67.8c-2.8,0-5-2.2-5-5V31.4H305.5v31.3c0,2.8-2.2,5-5,5s-5-2.2-5-5V26.4c0-2.8,2.2-5,5-5h215.7
			c2.8,0,5,2.2,5,5v36.3C521.2,65.5,519,67.8,516.2,67.8z"/>
	</g>
	<g>
		<path class="st2" d="M408.4,261.1c-1.3,0-2.6-0.5-3.5-1.5l-88.3-88.3c-2-2-2-5.1,0-7.1c2-2,5.1-2,7.1,0l84.8,84.8l84.8-84.8
			c2-2,5.1-2,7.1,0c2,2,2,5.1,0,7.1l-88.3,88.3C410.9,260.6,409.7,261.1,408.4,261.1z"/>
	</g>
</g>
<g>
	<path class="st3" d="M53.8,146.8H25.4c-1.1,0-2-0.3-2.5-0.8c-0.5-0.5-0.8-1.3-0.8-2.5V133c0-1.1,0.3-2,0.8-2.5
		c0.5-0.5,1.3-0.8,2.5-0.8h24.2c0.8,0,1.4-0.3,1.8-0.8c0.4-0.5,0.6-1.1,0.6-1.8c0-1-0.2-1.8-0.6-2.2c-0.4-0.5-1-0.7-1.8-0.8
		l-13.5-1.9c-4.2-0.6-7.6-2-10.1-4.1c-2.6-2.2-3.8-5.8-3.8-10.8v-9.5c0-5.1,1.7-9,5-11.7C30.4,83.3,35,82,40.8,82H66
		c1.1,0,2,0.3,2.5,0.8c0.5,0.5,0.8,1.3,0.8,2.5v10.7c0,1.1-0.3,2-0.8,2.5c-0.5,0.5-1.3,0.8-2.5,0.8H45c-0.8,0-1.4,0.3-1.8,0.8
		c-0.4,0.5-0.6,1.2-0.6,1.9c0,0.8,0.2,1.4,0.6,2c0.4,0.5,1,0.8,1.8,0.9l13.4,1.8c4.2,0.6,7.6,2,10.2,4.1c2.6,2.2,3.9,5.8,3.9,10.8
		v9.5c0,5.1-1.7,9-5,11.7C64.2,145.4,59.6,146.8,53.8,146.8z M61.1,90.1h-20c-2.8,0-5,0.8-6.7,2.3c-1.7,1.5-2.5,3.5-2.5,5.9v7.4
		c0,2.5,0.5,4.2,1.5,5.1c1,0.9,2.3,1.5,3.8,1.8l19,3.9c1.7,0.4,3,1.1,4,2.1c1,1.1,1.5,3,1.5,5.8v5.2c0,2.4-0.8,4.4-2.5,5.9
		c-1.7,1.5-3.9,2.3-6.6,2.3H30.3v0.9h22.4c3.1,0,5.5-0.9,7.3-2.6c1.8-1.7,2.7-3.9,2.7-6.5v-5.2c0-3.1-0.6-5.3-1.8-6.5
		c-1.2-1.2-2.7-2-4.5-2.3l-19-3.9c-1.4-0.2-2.5-0.8-3.3-1.6c-0.8-0.8-1.3-2.3-1.3-4.4v-7.4c0-2.1,0.7-3.8,2.2-5.2
		c1.5-1.4,3.5-2.1,6-2.1h20V90.1z"/>
	<path class="st3" d="M117.5,146.8h-14c-1.1,0-2-0.3-2.5-0.8c-0.5-0.5-0.8-1.3-0.8-2.5V85.2c0-1.1,0.3-2,0.8-2.5
		c0.5-0.5,1.3-0.8,2.5-0.8h27.5c8.2,0,13.7,1.6,16.7,4.9c3,3.2,4.5,7.5,4.5,12.7v11.5c0,5.2-1.5,9.5-4.5,12.7
		c-3,3.2-8.6,4.9-16.7,4.9h-10.3v14.9c0,1.1-0.3,2-0.8,2.5C119.4,146.5,118.6,146.8,117.5,146.8z M129.8,121c2.8,0,5.1-0.3,6.9-0.9
		c1.8-0.6,3.1-1.4,4.1-2.5c1-1,1.6-2.3,2-3.8c0.4-1.5,0.5-3.1,0.5-4.8v-6.7c0-1.7-0.2-3.4-0.5-4.9c-0.4-1.5-1-2.8-2-3.9
		c-1-1.1-2.3-1.9-4.1-2.6c-1.8-0.6-4.1-0.9-6.9-0.9h-19.4v48.6h0.9V121H129.8z M111.3,120.1V91h18.5c2.6,0,4.8,0.3,6.4,0.9
		c1.6,0.6,2.9,1.4,3.8,2.4c0.9,1,1.5,2.2,1.8,3.6c0.3,1.4,0.5,2.9,0.5,4.5v6.7c0,1.6-0.2,3.1-0.5,4.5c-0.3,1.4-0.9,2.5-1.8,3.5
		c-0.9,1-2.2,1.8-3.8,2.3c-1.7,0.5-3.8,0.8-6.4,0.8H111.3z M120.5,98.8v13.6h8.1c1.7,0,2.9-0.5,3.4-1.4c0.5-0.9,0.8-1.9,0.8-3.1
		v-4.8c0-1.1-0.3-2.2-0.8-3.1c-0.5-0.9-1.7-1.4-3.4-1.4H120.5z"/>
	<path class="st3" d="M234.6,129.8c0,2.8-0.4,5.3-1.2,7.5s-2.2,4.2-4.3,5.8c-2.1,1.6-4.9,2.8-8.6,3.7c-3.6,0.9-8.2,1.4-13.8,1.4
		s-10.2-0.5-13.9-1.4c-3.7-0.9-6.5-2.1-8.6-3.7c-2.1-1.6-3.5-3.5-4.3-5.8s-1.2-4.8-1.2-7.5V99.1c0-2.8,0.4-5.3,1.2-7.5
		s2.2-4.2,4.3-5.8s4.9-2.9,8.6-3.8c3.7-0.9,8.3-1.4,13.9-1.4s10.2,0.4,13.8,1.4c3.6,0.9,6.5,2.2,8.6,3.8c2.1,1.6,3.5,3.6,4.3,5.8
		s1.2,4.8,1.2,7.5V129.8z M224.8,127.7v-26.5c0-3.6-1.3-6.5-3.9-8.8c-2.6-2.2-7.4-3.4-14.4-3.4s-11.8,1.1-14.3,3.4s-3.8,5.2-3.8,8.8
		v26.5c0,3.6,1.3,6.5,3.8,8.8s7.3,3.4,14.3,3.4s11.8-1.1,14.4-3.4C223.5,134.2,224.8,131.3,224.8,127.7z M189.3,127.7v-26.5
		c0-3.4,1.2-6.1,3.6-8.1c2.4-2.1,6.9-3.1,13.6-3.1c6.7,0,11.2,1,13.7,3.1c2.5,2.1,3.7,4.8,3.7,8.1v26.5c0,3.4-1.2,6.1-3.7,8.1
		c-2.5,2.1-7,3.1-13.7,3.1c-6.7,0-11.2-1-13.6-3.1C190.5,133.8,189.3,131.1,189.3,127.7z M199.1,126.5c0,1.2,0.5,2.2,1.3,3
		c0.9,0.8,3,1.2,6.2,1.2s5.3-0.4,6.2-1.2c0.9-0.8,1.4-1.8,1.4-3v-24.2c0-1.1-0.5-2.1-1.4-2.9c-0.9-0.8-3-1.2-6.2-1.2
		s-5.3,0.4-6.2,1.2c-0.9,0.8-1.3,1.8-1.3,2.9V126.5z"/>
	<path class="st3" d="M281.1,146.8h-13.9c-1.1,0-2-0.3-2.5-0.8c-0.5-0.5-0.8-1.3-0.8-2.5V85.2c0-1.1,0.3-2,0.8-2.5
		c0.5-0.5,1.3-0.8,2.5-0.8h30c6.7,0,11.4,1.4,13.9,4.2c2.5,2.8,3.8,6.4,3.8,10.8v4.1c0,2.5-0.4,4.7-1.1,6.4c-0.8,1.8-2.1,3-3.9,3.8
		c3.2,0.4,5.9,1.7,7.9,4c2,2.3,3,5.3,3,9.1v19.1c0,1.1-0.3,2-0.8,2.5c-0.5,0.5-1.3,0.8-2.5,0.8h-13.9c-1.1,0-2-0.3-2.5-0.8
		c-0.5-0.5-0.8-1.3-0.8-2.5v-13.8c0-1.3-0.3-2.3-0.8-2.9s-1.4-0.9-2.7-0.9h-12.6v17.6c0,1.1-0.3,2-0.8,2.5
		C283.1,146.5,282.2,146.8,281.1,146.8z M274.6,138.7v-20.9h25.5c3.4,0,5.9,0.7,7.6,2.2c1.6,1.5,2.4,3.7,2.4,6.6v12.1h0.9v-12.1
		c0-3.1-0.9-5.5-2.7-7.2c-1.8-1.6-4.5-2.5-8.2-2.5h-1c2.2-0.7,3.6-1.9,4.3-3.6c0.7-1.8,1.1-4,1.1-6.8v-6.2c0-2.9-0.8-5.4-2.5-7.3
		c-1.7-1.9-4.3-2.9-7.7-2.9h-20.5v48.6H274.6z M294.2,91c3.2,0,5.5,0.9,7.1,2.6c1.5,1.7,2.3,4,2.3,6.8v6.3c0,3.3-0.6,5.9-1.9,7.6
		c-1.3,1.8-3.8,2.7-7.5,2.7h-19.6V91H294.2z M284.3,98.2v11.5h6.8c1.6,0,2.6-0.4,3.2-1.2s0.8-1.8,0.8-3v-3.1c0-1.2-0.3-2.2-0.8-3
		c-0.5-0.8-1.6-1.2-3.2-1.2H284.3z"/>
	<path class="st3" d="M376.8,146.8h-14.6c-1.1,0-2-0.3-2.5-0.8c-0.5-0.5-0.8-1.3-0.8-2.5V99.4h-13.2c-1.1,0-2-0.3-2.5-0.8
		c-0.5-0.5-0.8-1.3-0.8-2.5V85.2c0-1.1,0.3-2,0.8-2.5c0.5-0.5,1.3-0.8,2.5-0.8h47.5c1.1,0,2,0.3,2.5,0.8c0.5,0.5,0.8,1.3,0.8,2.5
		v10.9c0,1.1-0.3,2-0.8,2.5c-0.5,0.5-1.3,0.8-2.5,0.8H380v44.2c0,1.1-0.3,2-0.8,2.5C378.7,146.5,377.9,146.8,376.8,146.8z
		 M369,138.7h0.9V91h18.4v-0.9h-37.8V91H369V138.7z"/>
	<path class="st3" d="M453.3,146.8h-28.4c-1.1,0-2-0.3-2.5-0.8c-0.5-0.5-0.8-1.3-0.8-2.5V133c0-1.1,0.3-2,0.8-2.5
		c0.5-0.5,1.3-0.8,2.5-0.8H449c0.8,0,1.4-0.3,1.8-0.8c0.4-0.5,0.6-1.1,0.6-1.8c0-1-0.2-1.8-0.6-2.2c-0.4-0.5-1-0.7-1.8-0.8
		l-13.5-1.9c-4.2-0.6-7.6-2-10.1-4.1c-2.6-2.2-3.8-5.8-3.8-10.8v-9.5c0-5.1,1.7-9,5-11.7c3.3-2.7,7.9-4.1,13.7-4.1h25.2
		c1.1,0,2,0.3,2.5,0.8c0.5,0.5,0.8,1.3,0.8,2.5v10.7c0,1.1-0.3,2-0.8,2.5c-0.5,0.5-1.3,0.8-2.5,0.8h-21c-0.8,0-1.4,0.3-1.8,0.8
		c-0.4,0.5-0.6,1.2-0.6,1.9c0,0.8,0.2,1.4,0.6,2c0.4,0.5,1,0.8,1.8,0.9l13.4,1.8c4.2,0.6,7.6,2,10.2,4.1c2.6,2.2,3.9,5.8,3.9,10.8
		v9.5c0,5.1-1.7,9-5,11.7C463.6,145.4,459,146.8,453.3,146.8z M460.6,90.1h-20c-2.8,0-5,0.8-6.7,2.3c-1.7,1.5-2.5,3.5-2.5,5.9v7.4
		c0,2.5,0.5,4.2,1.5,5.1c1,0.9,2.3,1.5,3.8,1.8l19,3.9c1.7,0.4,3,1.1,4,2.1c1,1.1,1.5,3,1.5,5.8v5.2c0,2.4-0.8,4.4-2.5,5.9
		c-1.7,1.5-3.9,2.3-6.6,2.3h-22.4v0.9h22.4c3.1,0,5.5-0.9,7.3-2.6c1.8-1.7,2.7-3.9,2.7-6.5v-5.2c0-3.1-0.6-5.3-1.8-6.5
		c-1.2-1.2-2.7-2-4.5-2.3l-19-3.9c-1.4-0.2-2.5-0.8-3.3-1.6c-0.8-0.8-1.3-2.3-1.3-4.4v-7.4c0-2.1,0.7-3.8,2.2-5.2
		c1.5-1.4,3.5-2.1,6-2.1h20V90.1z"/>
	<path class="st3" d="M537.5,146.8h-34.6c-1.1,0-2-0.3-2.5-0.8c-0.5-0.5-0.8-1.3-0.8-2.5V85.2c0-1.1,0.3-2,0.8-2.5
		c0.5-0.5,1.3-0.8,2.5-0.8h28.7c5.9,0,10.2,1.1,13,3.4c2.8,2.2,4.2,5.7,4.2,10.4v4.3c0,2.5-0.4,4.6-1.3,6.2c-0.9,1.6-2.2,2.8-4,3.6
		c3.8,0.4,6.7,1.7,8.5,4c1.9,2.3,2.8,5.6,2.8,10v8.3c0,5-1.4,8.8-4.3,11.2C547.8,145.6,543.4,146.8,537.5,146.8z M509.7,138.7h24.2
		c2.5,0,4.6-0.2,6.1-0.7c1.6-0.5,2.7-1.1,3.6-1.8c0.8-0.8,1.4-1.7,1.7-2.8c0.3-1.1,0.5-2.3,0.5-3.6v-5.8c0-1.5-0.1-2.9-0.4-4.1
		c-0.3-1.3-0.8-2.4-1.7-3.3c-0.8-0.9-2-1.6-3.6-2.2c-1.6-0.5-3.6-0.8-6-0.8c2.6-0.7,4.2-1.7,4.8-3.2c0.6-1.5,0.9-3.1,0.9-4.9v-5.8
		c0-1.3-0.2-2.5-0.5-3.7c-0.3-1.1-0.9-2.1-1.7-3c-0.8-0.9-2-1.6-3.6-2.1c-1.6-0.5-3.6-0.8-6-0.8h-18.3V138.7z M528,91
		c4.5,0,7.4,0.8,8.8,2.5c1.4,1.7,2.1,3.7,2.1,6.1v5.8c0,1.1-0.1,2.1-0.3,3.1c-0.2,1-0.7,1.9-1.4,2.6c-0.8,0.8-1.8,1.4-3.3,1.8
		c-1.4,0.4-3.4,0.7-5.9,0.7h-17.4V91H528z M534,114.5c4.5,0,7.4,0.9,8.8,2.7c1.3,1.8,2,4,2,6.8v5.8c0,2.5-0.7,4.4-2.1,5.9
		c-1.4,1.5-4.3,2.2-8.8,2.2h-23.3v-23.3H534z M520,97.3v9.7h7.7c1.1,0,2-0.3,2.6-0.9c0.6-0.6,0.9-1.5,0.9-2.7v-2.5
		c0-1.2-0.3-2.1-0.9-2.7c-0.6-0.6-1.4-0.9-2.6-0.9H520z M520,120.9v10.6h11.7c1.1,0,2-0.3,2.6-0.9c0.6-0.6,0.9-1.5,0.9-2.7v-3.5
		c0-1.2-0.3-2.1-0.9-2.7c-0.6-0.6-1.4-0.9-2.6-0.9H520z"/>
	<path class="st3" d="M601.3,143.5c0,1.1-0.3,2-0.8,2.5c-0.5,0.5-1.3,0.8-2.5,0.8h-13.2c-1.1,0-2-0.3-2.5-0.8
		c-0.5-0.5-0.8-1.3-0.8-2.5v-23.8c0-1.8,0.3-3.9,0.9-6.2c0.6-2.3,1.5-5.1,2.7-8.2l7.8-20.4c0.4-1,0.9-1.8,1.7-2.2
		c0.7-0.5,1.7-0.7,2.9-0.7h24.2c1.1,0,2.1,0.2,2.8,0.7c0.8,0.5,1.3,1.2,1.7,2.2l7.8,20.4c1.2,3.1,2.1,5.9,2.7,8.2
		c0.6,2.3,0.9,4.4,0.9,6.2v23.8c0,1.1-0.3,2-0.8,2.5c-0.5,0.5-1.3,0.8-2.5,0.8h-13.6c-1.2,0-2.1-0.3-2.7-0.8
		c-0.6-0.5-0.9-1.3-0.9-2.5v-12.6h-15.9V143.5z M627.1,138.7h0.9v-19.2c0-1.7-0.1-3.2-0.4-4.6c-0.3-1.4-0.6-2.8-1.1-4.1l-6.2-14.7
		c-0.7-1.7-1.5-3.2-2.3-4.3c-0.8-1.1-2.2-1.7-4.2-1.7H605c-2,0-3.5,0.6-4.3,1.7c-0.8,1.1-1.6,2.6-2.2,4.2l-5.8,14.8
		c-0.5,1.3-0.9,2.7-1.1,4.1c-0.3,1.4-0.4,3-0.4,4.6v19.2h0.9v-15.5h35.1V138.7z M592,119.5c0-1.6,0.1-3.1,0.4-4.5
		c0.3-1.4,0.6-2.7,1-3.9l5.8-14.8c0.6-1.5,1.3-2.8,2-3.8c0.7-1,2-1.6,3.8-1.6h8.8c1.7,0,2.9,0.5,3.6,1.6c0.7,1.1,1.4,2.4,2.1,3.9
		l6.2,14.7c0.4,1.2,0.8,2.5,1,3.9c0.3,1.4,0.4,2.9,0.4,4.5v2.8H592V119.5z M606.4,100.9l-4.2,13.7h14.1l-4.2-13.7
		c-0.2-0.5-0.5-0.9-0.8-1.2c-0.3-0.2-0.6-0.4-0.9-0.4h-2.2c-0.4,0-0.7,0.1-0.9,0.4C606.9,100,606.7,100.3,606.4,100.9z"/>
	<path class="st3" d="M715.7,146.8h-45.8c-1.1,0-2-0.3-2.5-0.8c-0.5-0.5-0.8-1.3-0.8-2.5V85.2c0-1.1,0.3-2,0.8-2.5
		c0.5-0.5,1.3-0.8,2.5-0.8h14c1.1,0,2,0.3,2.5,0.8c0.5,0.5,0.8,1.3,0.8,2.5v44.6h12.3v-14.6c0-1.1,0.3-2,0.8-2.5
		c0.5-0.5,1.3-0.8,2.5-0.8h13c1.1,0,2,0.3,2.5,0.8c0.5,0.5,0.8,1.3,0.8,2.5v28.3c0,1.1-0.3,2-0.8,2.5
		C717.7,146.5,716.8,146.8,715.7,146.8z M676.5,138.7h33.1v-18.6h-0.9v17.7h-31.3V90.1h-0.9V138.7z"/>
	<path class="st3" d="M796.3,146.8h-45.8c-1.1,0-2-0.3-2.5-0.8c-0.5-0.5-0.8-1.3-0.8-2.5V85.2c0-1.1,0.3-2,0.8-2.5
		c0.5-0.5,1.3-0.8,2.5-0.8h14c1.1,0,2,0.3,2.5,0.8c0.5,0.5,0.8,1.3,0.8,2.5v44.6H780v-14.6c0-1.1,0.3-2,0.8-2.5
		c0.5-0.5,1.3-0.8,2.5-0.8h13c1.1,0,2,0.3,2.5,0.8c0.5,0.5,0.8,1.3,0.8,2.5v28.3c0,1.1-0.3,2-0.8,2.5
		C798.2,146.5,797.4,146.8,796.3,146.8z M757,138.7h33.1v-18.6h-0.9v17.7h-31.3V90.1H757V138.7z"/>
</g>
</svg>
