<svg id="Layer_1" data-name="Layer 1" xmlns="http://www.w3.org/2000/svg" viewBox="0 0 821.91 281.96"><defs><style>.cls-1{fill:#f26f44;}.cls-2{fill:#f4f1e7;}</style></defs><title>logo_creme</title><path class="cls-1" d="M531.22,67.78a5,5,0,0,1-5-5V31.44H320.54V62.78a5,5,0,1,1-10,0V26.44a5,5,0,0,1,5-5H531.22a5,5,0,0,1,5,5V62.78A5,5,0,0,1,531.22,67.78Z"/><path class="cls-1" d="M423.38,261.12a5,5,0,0,1-3.53-1.46l-88.34-88.34a5,5,0,1,1,7.07-7.07l84.8,84.8,84.81-84.8a5,5,0,1,1,7.07,7.07l-88.34,88.34A5,5,0,0,1,423.38,261.12Z"/><path class="cls-2" d="M53.85,146.78H25.41a3.41,3.41,0,0,1-2.48-.76,3.41,3.41,0,0,1-.76-2.48V133a3.38,3.38,0,0,1,.76-2.47,3.41,3.41,0,0,1,2.48-.77H49.62a2.06,2.06,0,0,0,1.75-.76,3,3,0,0,0,.59-1.85,3.54,3.54,0,0,0-.59-2.25,2.37,2.37,0,0,0-1.75-.81l-13.5-1.89A19.61,19.61,0,0,1,26,118.07q-3.82-3.24-3.82-10.8V97.82q0-7.65,4.95-11.74T40.8,82H66a2.78,2.78,0,0,1,3.24,3.24V95.93A2.78,2.78,0,0,1,66,99.17H45a2.2,2.2,0,0,0-1.8.77,2.93,2.93,0,0,0-.63,1.93,3.13,3.13,0,0,0,.63,2,2.39,2.39,0,0,0,1.8.9l13.41,1.8a19.86,19.86,0,0,1,10.17,4.14q3.87,3.24,3.87,10.8v9.45q0,7.65-5,11.75T53.85,146.78Zm7.29-56.7h-20a9.51,9.51,0,0,0-6.66,2.3A7.6,7.6,0,0,0,32,98.27v7.38q0,3.69,1.48,5.09a7.53,7.53,0,0,0,3.83,1.84l19,3.87a7.48,7.48,0,0,1,4,2.12q1.48,1.58,1.49,5.8v5.22a7.69,7.69,0,0,1-2.48,5.9,9.33,9.33,0,0,1-6.61,2.29H30.27v.9H52.68A10.15,10.15,0,0,0,60,136.12a8.62,8.62,0,0,0,2.7-6.53v-5.22q0-4.68-1.76-6.48a8.32,8.32,0,0,0-4.45-2.34l-19-3.87a6,6,0,0,1-3.33-1.62q-1.26-1.26-1.26-4.41V98.27a6.79,6.79,0,0,1,2.25-5.22,8.56,8.56,0,0,1,6-2.07h20Z"/><path class="cls-2" d="M117.48,146.78h-14a2.77,2.77,0,0,1-3.24-3.24V85.22A2.78,2.78,0,0,1,103.53,82h27.54q12.24,0,16.74,4.86t4.5,12.69v11.52q0,7.83-4.5,12.69t-16.74,4.86H120.72v14.94a2.78,2.78,0,0,1-3.24,3.24ZM129.81,121a21.85,21.85,0,0,0,6.88-.9,9.61,9.61,0,0,0,4.1-2.47,8.49,8.49,0,0,0,2-3.78,20.27,20.27,0,0,0,.54-4.82v-6.66a20.79,20.79,0,0,0-.54-4.86,8.82,8.82,0,0,0-2-3.87,9.71,9.71,0,0,0-4.1-2.56,20.87,20.87,0,0,0-6.88-1H110.37v48.6h.9V121Zm-18.54-.9V91h18.54a20.06,20.06,0,0,1,6.43.86,8.82,8.82,0,0,1,3.83,2.38,8.24,8.24,0,0,1,1.84,3.6,19.32,19.32,0,0,1,.5,4.5V109a18.79,18.79,0,0,1-.5,4.46,7.92,7.92,0,0,1-1.84,3.51,8.71,8.71,0,0,1-3.83,2.29,21.12,21.12,0,0,1-6.43.81Zm9.27-21.24V112.4h8.1q2.61,0,3.42-1.35a5.83,5.83,0,0,0,.81-3.06v-4.77a5.83,5.83,0,0,0-.81-3.06q-.81-1.35-3.42-1.35Z"/><path class="cls-2" d="M234.57,129.77a22.09,22.09,0,0,1-1.22,7.52,12.56,12.56,0,0,1-4.32,5.76,23.13,23.13,0,0,1-8.55,3.73,58.74,58.74,0,0,1-13.81,1.35,59.38,59.38,0,0,1-13.86-1.35,23.18,23.18,0,0,1-8.6-3.73,12.56,12.56,0,0,1-4.32-5.76,22.09,22.09,0,0,1-1.21-7.52V99.08a22,22,0,0,1,1.21-7.51,12.85,12.85,0,0,1,4.32-5.81,22.7,22.7,0,0,1,8.6-3.78,59.38,59.38,0,0,1,13.86-1.35A58.74,58.74,0,0,1,220.48,82,22.65,22.65,0,0,1,229,85.76a12.85,12.85,0,0,1,4.32,5.81,22,22,0,0,1,1.22,7.51Zm-9.81-2.07V101.15a11.08,11.08,0,0,0-3.87-8.77Q217,89,206.49,89t-14.31,3.38a11.2,11.2,0,0,0-3.78,8.77V127.7a11.22,11.22,0,0,0,3.78,8.78q3.78,3.38,14.31,3.37t14.4-3.37A11.11,11.11,0,0,0,224.76,127.7Zm-35.46,0V101.15A10.23,10.23,0,0,1,192.9,93q3.6-3.11,13.59-3.11T220.17,93a10.12,10.12,0,0,1,3.69,8.14V127.7a10.14,10.14,0,0,1-3.69,8.15q-3.69,3.1-13.68,3.1t-13.59-3.1A10.25,10.25,0,0,1,189.3,127.7Zm9.81-1.17a3.9,3.9,0,0,0,1.35,3q1.35,1.22,6.21,1.21t6.21-1.21a3.9,3.9,0,0,0,1.35-3V102.32a3.79,3.79,0,0,0-1.35-2.92q-1.35-1.22-6.21-1.22t-6.21,1.22a3.79,3.79,0,0,0-1.35,2.92Z"/><path class="cls-2" d="M281.1,146.78H267.24a2.77,2.77,0,0,1-3.24-3.24V85.22A2.78,2.78,0,0,1,267.24,82h30q10.08,0,13.9,4.19A15.44,15.44,0,0,1,314.94,97v4.14a16.5,16.5,0,0,1-1.13,6.44,7,7,0,0,1-3.91,3.82,11.83,11.83,0,0,1,7.87,4,13.25,13.25,0,0,1,3,9.09v19.08a2.78,2.78,0,0,1-3.24,3.24H303.6a2.77,2.77,0,0,1-3.24-3.24V129.77a4.59,4.59,0,0,0-.77-2.92,3.23,3.23,0,0,0-2.65-.95h-12.6v17.64a2.78,2.78,0,0,1-3.24,3.24Zm-6.48-8.1V117.8h25.47q5.13,0,7.56,2.21t2.43,6.61v12.06h.9V126.62q0-4.68-2.7-7.15T300.09,117h-1a6.31,6.31,0,0,0,4.32-3.64,18.24,18.24,0,0,0,1.08-6.8v-6.21A10.83,10.83,0,0,0,302,93q-2.52-2.92-7.74-2.93H273.72v48.6ZM294.24,91q4.77,0,7.06,2.61a9.85,9.85,0,0,1,2.3,6.75v6.3q0,5-1.89,7.65t-7.47,2.7H274.62V91Zm-9.9,7.2V109.7h6.75c1.56,0,2.61-.4,3.15-1.21a5.33,5.33,0,0,0,.81-3v-3.06a5.3,5.3,0,0,0-.81-3c-.54-.81-1.59-1.22-3.15-1.22Z"/><path class="cls-2" d="M376.77,146.78H362.19a2.77,2.77,0,0,1-3.24-3.24V99.35H345.72a2.77,2.77,0,0,1-3.24-3.24V85.22A2.78,2.78,0,0,1,345.72,82h47.52a2.78,2.78,0,0,1,3.24,3.24V96.11a2.78,2.78,0,0,1-3.24,3.24H380v44.19a2.78,2.78,0,0,1-3.24,3.24Zm-7.74-8.1h.9V91h18.45v-.9h-37.8V91H369Z"/><path class="cls-2" d="M453.27,146.78H424.83a2.77,2.77,0,0,1-3.24-3.24V133a2.78,2.78,0,0,1,3.24-3.24H449a2.07,2.07,0,0,0,1.75-.76,3,3,0,0,0,.59-1.85,3.54,3.54,0,0,0-.59-2.25,2.38,2.38,0,0,0-1.75-.81l-13.5-1.89a19.61,19.61,0,0,1-10.13-4.14q-3.82-3.24-3.82-10.8V97.82q0-7.65,5-11.74c3.29-2.73,7.86-4.1,13.68-4.1h25.2a2.78,2.78,0,0,1,3.24,3.24V95.93a2.78,2.78,0,0,1-3.24,3.24h-21a2.19,2.19,0,0,0-1.8.77,2.93,2.93,0,0,0-.63,1.93,3.13,3.13,0,0,0,.63,2,2.38,2.38,0,0,0,1.8.9l13.41,1.8A19.9,19.9,0,0,1,468,110.69q3.87,3.24,3.87,10.8v9.45q0,7.65-5,11.75T453.27,146.78Zm7.29-56.7h-20a9.51,9.51,0,0,0-6.66,2.3,7.6,7.6,0,0,0-2.52,5.89v7.38q0,3.69,1.48,5.09a7.49,7.49,0,0,0,3.83,1.84l19,3.87a7.52,7.52,0,0,1,4,2.12q1.49,1.58,1.49,5.8v5.22a7.69,7.69,0,0,1-2.48,5.9,9.33,9.33,0,0,1-6.61,2.29H429.69v.9H452.1a10.15,10.15,0,0,0,7.29-2.56,8.62,8.62,0,0,0,2.7-6.53v-5.22q0-4.68-1.76-6.48a8.32,8.32,0,0,0-4.45-2.34l-19-3.87a6,6,0,0,1-3.33-1.62c-.85-.84-1.26-2.31-1.26-4.41V98.27a6.76,6.76,0,0,1,2.25-5.22,8.54,8.54,0,0,1,6-2.07h20Z"/><path class="cls-2" d="M537.51,146.78H503a2.77,2.77,0,0,1-3.24-3.24V85.22A2.78,2.78,0,0,1,503,82h28.71q8.8,0,13.05,3.38t4.23,10.39v4.32a12.8,12.8,0,0,1-1.31,6.17,8,8,0,0,1-4,3.55c3.83.36,6.69,1.68,8.55,4s2.79,5.61,2.79,10V132q0,7.56-4.28,11.16T537.51,146.78Zm-27.81-8.1h24.21A22.77,22.77,0,0,0,540,138a8.4,8.4,0,0,0,3.55-1.85,6,6,0,0,0,1.67-2.83,14,14,0,0,0,.45-3.65v-5.76a19.76,19.76,0,0,0-.41-4.14,7,7,0,0,0-1.66-3.28,8.2,8.2,0,0,0-3.6-2.16,19.83,19.83,0,0,0-6-.77c2.57-.66,4.18-1.74,4.81-3.24a12.66,12.66,0,0,0,1-5V99.62a14.46,14.46,0,0,0-.45-3.69,6.83,6.83,0,0,0-1.71-3,8.7,8.7,0,0,0-3.6-2.07,19.78,19.78,0,0,0-6-.77H509.7ZM528,91c4.5,0,7.43.84,8.82,2.52a9.33,9.33,0,0,1,2.07,6.12v5.76a15,15,0,0,1-.32,3.11,5.14,5.14,0,0,1-1.44,2.61,7.89,7.89,0,0,1-3.28,1.8,20.32,20.32,0,0,1-5.85.67H510.6V91Zm6,23.49q6.75,0,8.77,2.7a10.94,10.94,0,0,1,2,6.75v5.76a8.28,8.28,0,0,1-2.07,5.9c-1.39,1.47-4.32,2.2-8.82,2.2H510.6V114.47ZM520,97.28V107h7.65a3.38,3.38,0,0,0,2.56-.9,3.79,3.79,0,0,0,.86-2.7v-2.52a3.79,3.79,0,0,0-.86-2.7,3.38,3.38,0,0,0-2.56-.9Zm0,23.58v10.62h11.7a3.38,3.38,0,0,0,2.56-.9,3.79,3.79,0,0,0,.86-2.7v-3.51a3.61,3.61,0,0,0-.86-2.65,3.49,3.49,0,0,0-2.56-.86Z"/><path class="cls-2" d="M601.32,143.54a2.78,2.78,0,0,1-3.25,3.24H584.84a2.76,2.76,0,0,1-3.23-3.24V119.78a26.59,26.59,0,0,1,.85-6.21,68.36,68.36,0,0,1,2.65-8.19L593,85a4.17,4.17,0,0,1,1.66-2.25,5.33,5.33,0,0,1,2.92-.72h24.21a5.18,5.18,0,0,1,2.84.72A4.22,4.22,0,0,1,626.24,85l7.83,20.43a68.6,68.6,0,0,1,2.66,8.19,26.59,26.59,0,0,1,.85,6.21v23.76a2.77,2.77,0,0,1-3.24,3.24H620.75a3.88,3.88,0,0,1-2.65-.76,3.18,3.18,0,0,1-.86-2.48v-12.6H601.32Zm25.83-4.86H628V119.51a24.65,24.65,0,0,0-.4-4.63,26.68,26.68,0,0,0-1.13-4.1L620.3,96.11A22,22,0,0,0,618,91.79c-.81-1.14-2.21-1.71-4.19-1.71H605q-3.06,0-4.31,1.71A17.81,17.81,0,0,0,598.44,96l-5.77,14.76a26.65,26.65,0,0,0-1.12,4.1,24.65,24.65,0,0,0-.4,4.63v19.17H592V123.2h35.11ZM592,119.51a23.44,23.44,0,0,1,.41-4.5,26.62,26.62,0,0,1,1-3.87l5.75-14.76a19.13,19.13,0,0,1,2-3.82A4.24,4.24,0,0,1,605,91h8.82a4.05,4.05,0,0,1,3.6,1.58,21.66,21.66,0,0,1,2.07,3.91l6.21,14.67a28,28,0,0,1,1,3.87,23.44,23.44,0,0,1,.41,4.5v2.79H592Zm14.41-18.63-4.24,13.68h14.13l-4.23-13.68a3.42,3.42,0,0,0-.76-1.17,1.39,1.39,0,0,0-1-.36h-2.25a1.37,1.37,0,0,0-.94.36A3.28,3.28,0,0,0,606.45,100.88Z"/><path class="cls-2" d="M715.7,146.78H669.89a2.78,2.78,0,0,1-3.24-3.24V85.22A2.78,2.78,0,0,1,669.89,82h14a2.78,2.78,0,0,1,3.24,3.24v44.55h12.33V115.19a2.78,2.78,0,0,1,3.24-3.24H715.7a2.78,2.78,0,0,1,3.24,3.24v28.35a2.77,2.77,0,0,1-3.24,3.24Zm-39.24-8.1h33.12V120.05h-.9v17.73H677.36V90.08h-.9Z"/><path class="cls-2" d="M796.25,146.78H750.44a2.78,2.78,0,0,1-3.24-3.24V85.22A2.78,2.78,0,0,1,750.44,82h13.95a2.78,2.78,0,0,1,3.24,3.24v44.55H780V115.19A2.78,2.78,0,0,1,783.2,112h13a2.78,2.78,0,0,1,3.24,3.24v28.35a2.77,2.77,0,0,1-3.24,3.24ZM757,138.68h33.12V120.05h-.9v17.73H757.91V90.08H757Z"/></svg>